# xmcd
#
# Track frame offsets: 
#        150
#        12565
#        24325
#        36585
#        46435
#        55970
#        68855
#        79845
#        87220
#        95655
#        108920
#        120005
#        129110
#        140700
#        149690
#        161480
#        172455
#        185740
#        196350
#        207895
#        220232
#
# Disc length: 3102 seconds
#
# Revision: 1
# Processed by: cddbd v1.5.2PL0 Copyright (c) Steve Scherf et al.
# Submitted via: ExactAudioCopy v1.1
#
DISCID=3a0c1c15
DTITLE=Billy Ward and The Dominoes - Volume 4 - 21 Hits
DYEAR=1995
DGENRE=R&B
TTITLE0=I Need Somebody In My Arms (mono)
TTITLE1=Take Me To The Alter (mono)
TTITLE2=Deed I Do (mono)
TTITLE3=Where Now Little Heart (mono)
TTITLE4=My Baby's 3-D (mono)
TTITLE5=Tootsie Roll (mono)
TTITLE6=Handwriting On The Wall (mono)
TTITLE7=One Moment With You (mono)
TTITLE8=Little Black Train (mono)
TTITLE9=If I Never Get To Heaven (mono)
TTITLE10=Cave Man (mono)
TTITLE11=How Long, How Long Blues (mono)
TTITLE12=Don't Thank Me (mono)
TTITLE13=Lonesome Road (mono)
TTITLE14=I Really Don't Want To Know (mono)
TTITLE15=Learning The Blues (mono)
TTITLE16=May I Never Love Again (mono)
TTITLE17=Lay It On The Line (mono)
TTITLE18=That's How You Know When You're Growing Old (mono)
TTITLE19=I'm Walking Behind You (mono)
TTITLE20=This Love Of Mine (mono)
EXTD=
EXTT0=
EXTT1=
EXTT2=
EXTT3=
EXTT4=
EXTT5=
EXTT6=
EXTT7=
EXTT8=
EXTT9=
EXTT10=
EXTT11=
EXTT12=
EXTT13=
EXTT14=
EXTT15=
EXTT16=
EXTT17=
EXTT18=
EXTT19=
EXTT20=
PLAYORDER=
